Coordinates
version=1
nRows=16
nColumns=40
inDegrees=yes

Units are S.I. units (second, meters, Newtons, ...)
Angles are in degrees.

endheader
time	pelvis_tilt	pelvis_list	pelvis_rotation	pelvis_tx	pelvis_ty	pelvis_tz	hip_flexion_r	hip_adduction_r	hip_rotation_r	knee_angle_r	knee_angle_r_beta	ankle_angle_r	subtalar_angle_r	mtp_angle_r	hip_flexion_l	hip_adduction_l	hip_rotation_l	knee_angle_l	knee_angle_l_beta	ankle_angle_l	subtalar_angle_l	mtp_angle_l	lumbar_extension	lumbar_bending	lumbar_rotation	arm_flex_r	arm_add_r	arm_rot_r	elbow_flex_r	pro_sup_r	wrist_flex_r	wrist_dev_r	arm_flex_l	arm_add_l	arm_rot_l	elbow_flex_l	pro_sup_l	wrist_flex_l	wrist_dev_l
     15.05000000	     -5.08622304	     -4.60732798	      2.17063349	      0.78057894	      0.92917549	      0.51776609	     15.06366279	      2.97067979	    -14.31593303	     16.69703561	     16.69703561	      8.95299812	      1.29360625	     -4.84372301	     30.81946570	    -10.39735876	      3.34861762	     58.34103376	     58.34103376	      9.88050347	    -16.91977495	      9.28227932	    -10.63863330	      6.85508115	      2.17834633	     21.85918917	    -18.66941538	      1.07103939	     62.80997331	     45.77495287	      0.00000000	      0.00000000	      4.25629665	     -7.58639106	     -6.04134904	     36.77197393	     45.71604530	      0.00000000	      0.00000000
     15.06278571	     -5.26078742	     -4.49407036	      2.46735499	      0.77823061	      0.92939397	      0.51840513	     14.75519058	      2.91768714	    -14.46160742	     16.36092701	     16.36092701	      9.09781869	      1.27895104	     -4.92716166	     31.74139218	    -10.32219401	      3.27344057	     55.67200092	     55.67200092	     10.08371419	    -17.01628275	      9.26849036	    -10.63354639	      6.66098103	      2.02687664	     23.88410004	    -18.61761770	      1.06122912	     64.50774636	     45.72146234	      0.00000000	      0.00000000	      3.25249308	     -7.63363488	     -5.97710119	     35.61307275	     45.70056516	      0.00000000	      0.00000000
     15.07557143	     -5.40731639	     -4.42562325	      2.77611106	      0.77595484	      0.92958225	      0.51900847	     14.38663367	      2.91344192	    -14.65257013	     15.96790696	     15.96790696	      9.21834987	      1.32806238	     -5.06501001	     32.43855846	    -10.26615475	      3.18154772	     52.67937121	     52.67937121	     10.11773439	    -17.00935468	      9.07173132	    -10.67109365	      6.54844179	      1.92816981	     25.80515666	    -18.74018543	      1.32797458	     66.66114153	     45.64166529	      0.00000000	      0.00000000	      2.38849806	     -7.64052833	     -5.94355248	     34.16978620	     45.69454967	      0.00000000	      0.00000000
     15.08835714	     -5.68182506	     -4.46016487	      3.03274538	      0.77363105	      0.92939581	      0.51962032	     14.30002086	      2.98920966	    -14.81692916	     15.82472450	     15.82472450	      9.37213372	      1.24580335	     -5.13989771	     33.18087880	    -10.33718530	      3.00974235	     49.56470466	     49.56470466	     10.36549212	    -16.57859578	      9.28891236	    -10.50815405	      6.51058051	      2.39462123	     27.62381538	    -19.23303248	      1.13151628	     67.65201598	     45.62257520	      0.00000000	      0.00000000	      1.55832021	     -7.52648475	     -5.92646325	     33.60939604	     45.68176372	      0.00000000	      0.00000000
     15.10114286	     -5.74721272	     -4.35842533	      3.32485285	      0.77157872	      0.92959849	      0.51995717	     13.76395098	      2.95255655	    -15.07352820	     15.28536471	     15.28536471	      9.46194187	      1.48625144	     -5.39857230	     33.39308849	    -10.11326856	      2.95125640	     46.03835932	     46.03835932	     10.12234998	    -16.59682177	      8.85882162	    -10.69132363	      6.42848881	      2.05805230	     29.41015277	    -19.34627160	      1.99699451	     71.12020859	     45.47753210	      0.00000000	      0.00000000	      0.95692500	     -7.55493061	     -5.89748402	     31.30429213	     45.68984094	      0.00000000	      0.00000000
     15.11392857	     -5.91923059	     -4.26110732	      3.52310564	      0.76949923	      0.92952755	      0.52031516	     13.53952560	      2.89332587	    -15.13239274	     15.10552415	     15.10552415	      9.63336987	      1.43233776	     -5.48534576	     33.63478973	     -9.96731962	      2.70226386	     42.48237513	     42.48237513	     10.28194980	    -15.95168749	      9.11540436	    -10.70856659	      6.25690283	      2.37671968	     31.17808397	    -19.66157284	      1.87840307	     72.39957880	     45.44576778	      0.00000000	      0.00000000	      0.21407223	     -7.51053212	     -5.88580583	     30.62162226	     45.68152514	      0.00000000	      0.00000000
     15.12671429	     -6.04950585	     -4.25135619	      3.77405315	      0.76761444	      0.92940490	      0.52051930	     13.24150746	      2.91772153	    -15.29060151	     14.88816503	     14.88816503	      9.82228715	      1.45319213	     -5.58280222	     33.75372899	     -9.83031193	      2.56897288	     38.85233089	     38.85233089	     10.36328163	    -15.17436840	      9.36004152	    -10.70869885	      6.21889866	      2.42915758	     32.97306562	    -19.69302424	      1.89797882	     74.10549671	     45.39542878	      0.00000000	      0.00000000	     -0.59747778	     -7.52363452	     -5.84725891	     29.80068678	     45.66901291	      0.00000000	      0.00000000
     15.13950000	     -6.17169432	     -4.37267168	      4.03558235	      0.76582361	      0.92916619	      0.52053724	     12.91831135	      3.04482249	    -15.66675426	     14.64344481	     14.64344481	      9.96739237	      1.78986318	     -5.79803683	     33.80747041	     -9.77161023	      2.53658215	     35.19056561	     35.19056561	     10.07930686	    -14.33089616	      8.78627784	    -10.75951216	      6.42846112	      2.47832059	     34.35399770	    -20.08747407	      2.53278987	     77.31507597	     45.27314860	      0.00000000	      0.00000000	     -1.16325129	     -7.49150166	     -5.70762153	     28.39145882	     45.66201589	      0.00000000	      0.00000000
     15.15228571	     -6.30275471	     -4.38189494	      4.22661839	      0.76413977	      0.92890188	      0.52049187	     12.67283756	      3.06908483	    -15.76943430	     14.54141820	     14.54141820	     10.19594101	      1.75235331	     -5.87562954	     33.78509616	     -9.64494645	      2.26755065	     31.63515339	     31.63515339	     10.12135007	    -13.04015060	      9.04865399	    -10.72743902	      6.43433422	      2.66786154	     35.99954224	    -20.10039114	      2.39656099	     78.66958936	     45.24068151	      0.00000000	      0.00000000	     -1.93881672	     -7.50287410	     -5.64082512	     27.93875696	     45.64393375	      0.00000000	      0.00000000
     15.16507143	     -6.47067258	     -4.46952276	      4.43079286	      0.76252692	      0.92849991	      0.52027089	     12.44581744	      3.16232383	    -15.93586583	     14.39799198	     14.39799198	     10.40434414	      1.78853434	     -5.92976652	     33.80352875	     -9.55367720	      2.03173986	     28.25905093	     28.25905093	     10.10595157	    -11.60288187	      9.32116031	    -10.62930545	      6.55002130	      2.70431544	     37.66600233	    -19.97033247	      2.33794182	     80.20742369	     45.20000860	      0.00000000	      0.00000000	     -2.73952392	     -7.45559725	     -5.53842591	     27.58360593	     45.61779822	      0.00000000	      0.00000000
     15.17785714	     -6.52607652	     -4.60376220	      4.60772645	      0.76112589	      0.92820192	      0.51998029	     12.06707565	      3.31551305	    -16.12318776	     14.22326073	     14.22326073	     10.64993993	      1.95009468	     -5.96280475	     33.69256772	     -9.53282220	      1.67238843	     25.13315045	     25.13315045	      9.94420512	    -10.06624250	      9.51677573	    -10.66948154	      6.74129174	      2.60412574	     39.18121371	    -19.68036160	      2.43143659	     82.14468682	     45.14154295	      0.00000000	      0.00000000	     -3.71652098	     -7.51986892	     -5.36878762	     27.31217806	     45.57779070	      0.00000000	      0.00000000
     15.19064286	     -6.59475160	     -4.78928121	      4.79890280	      0.75984500	      0.92779841	      0.51953260	     11.67382039	      3.51562423	    -16.36600060	     14.00864726	     14.00864726	     10.91273301	      2.17716614	     -5.94197294	     33.65569570	     -9.54088878	      1.26284347	     22.40837558	     22.40837558	      9.66532088	     -8.53679066	      9.56144858	    -10.67285307	      7.00927463	      2.56122279	     40.60461531	    -19.48180835	      2.58139276	     84.28383775	     45.07624407	      0.00000000	      0.00000000	     -4.68276185	     -7.51444695	     -5.03352626	     27.39371866	     45.51036886	      0.00000000	      0.00000000
     15.20342857	     -6.65430980	     -4.97923660	      4.94695994	      0.75872844	      0.92739150	      0.51901153	     11.25367958	      3.72095483	    -16.59550212	     13.78715288	     13.78715288	     11.21628724	      2.48702119	     -5.75849669	     33.61074114	     -9.56786932	      0.71482143	     20.06192203	     20.06192203	      9.13124287	     -7.10931817	      9.16715111	    -10.68416643	      7.25325492	      2.73315944	     41.68730325	    -19.54552217	      2.73875936	     86.79071697	     45.00585664	      0.00000000	      0.00000000	     -5.85746196	     -7.66929876	     -3.86993626	     28.38114669	     45.31549853	      0.00000000	      0.00000000
     15.21621429	     -6.67564356	     -5.11804824	      5.06218563	      0.75779051	      0.92710454	      0.51839030	     10.78032533	      3.89593861	    -16.65866746	     13.55928883	     13.55928883	     11.47188547	      2.56104432	     -5.74859861	     33.48871073	     -9.52003303	      0.16605595	     18.11686113	     18.11686113	      8.67064416	     -6.06522771	      9.50089092	    -10.62903895	      7.40755467	      2.68286193	     43.01249356	    -19.09674978	      2.67225689	     88.07022815	     44.97580944	      0.00000000	      0.00000000	     -6.70562746	     -7.66567634	     -3.45316929	     28.34535808	     45.24176448	      0.00000000	      0.00000000
     15.22900000	     -6.69168070	     -5.28274707	      5.18348803	      0.75705471	      0.92677948	      0.51759926	     10.23189484	      4.10069414	    -16.75336515	     13.22959786	     13.22959786	     11.69539233	      2.73254987	     -5.70137306	     33.37518845	     -9.48365132	     -0.38087037	     16.64507626	     16.64507626	      8.27301794	     -5.14846422	      9.66689631	    -10.58866491	      7.63806752	      2.65400441	     44.25442922	    -18.56938784	      2.68992101	     89.51365940	     44.93741200	      0.00000000	      0.00000000	     -7.60098842	     -7.65266861	     -3.03634414	     28.48635565	     45.16551013	      0.00000000	      0.00000000
     15.24178571	     -6.64544938	     -5.50886305	      5.28285445	      0.75652524	      0.92639078	      0.51671696	      9.57855641	      4.36913214	    -16.91138132	     12.85772493	     12.85772493	     12.03040352	      3.16876078	     -5.47411663	     33.39731925	     -9.56144180	     -1.13818421	     15.95337983	     15.95337983	      7.41181176	     -4.41142134	      8.70605484	    -10.58733793	      7.94769909	      2.81540327	     45.05966680	    -18.55263103	      2.68972912	     91.63727541	     44.89597732	      0.00000000	      0.00000000	     -9.17458559	     -8.12160229	     -0.45505259	     30.80667324	     44.77967768	      0.00000000	      0.00000000
